<svg width="202" height="130" viewBox="0 0 202 130" fill="none" xmlns="http://www.w3.org/2000/svg">
<mask id="mask0_1_846" style="mask-type:luminance" maskUnits="userSpaceOnUse" x="0" y="0" width="202" height="130">
<path d="M202 0H0V129.088H202V0Z" fill="white"/>
</mask>
<g mask="url(#mask0_1_846)">
<path d="M42.435 106.062H41.711C41.792 105.015 41.792 104.828 41.792 101.262V89.597C41.792 87.318 41.684 87.1851 39.834 87.1571V86.5681L44.152 86.3521C44.045 88.1521 43.991 90.321 43.991 91.716V94.716C44.3853 93.9064 45.005 93.2279 45.7755 92.7619C46.5461 92.2959 47.4348 92.0622 48.335 92.0891C51.821 92.0891 54.047 94.7701 54.047 98.9801C54.047 103.539 51.741 106.38 48.013 106.38C47.165 106.388 46.3252 106.215 45.549 105.874C44.7728 105.532 44.0782 105.029 43.511 104.399L42.435 106.062ZM44.711 103.919C45.0055 104.487 45.4529 104.961 46.0026 105.288C46.5523 105.615 47.1825 105.782 47.822 105.77C50.288 105.77 51.549 103.57 51.549 99.3081C51.549 95.0171 50.342 92.819 47.982 92.819C45.408 92.819 43.882 95.285 43.882 99.496C43.7964 101.016 44.0809 102.534 44.711 103.919Z" fill="#1A1818"/>
<path d="M60.3748 92.1708C60.4278 93.5118 60.4548 93.8608 60.4548 94.4238V95.2817C61.3398 93.2437 62.7878 92.0907 64.3708 92.0907C64.614 92.0645 64.8599 92.0868 65.0944 92.1564C65.3289 92.2259 65.5472 92.3414 65.7367 92.496C65.9262 92.6506 66.0831 92.8413 66.1983 93.0571C66.3135 93.2728 66.3847 93.5093 66.4078 93.7528C66.4078 94.4238 65.8448 94.8528 64.9868 94.8528C64.3968 94.8528 64.1548 94.6918 63.9948 94.1818C63.8338 93.5918 63.6728 93.4307 63.2438 93.4307C62.7988 93.5036 62.38 93.6898 62.0278 93.9715C61.6756 94.2531 61.4018 94.6207 61.2328 95.0387C60.7074 96.0946 60.4583 97.2665 60.5088 98.4448V102.655C60.5088 105.175 60.6438 105.362 62.4388 105.417V106.006H56.2988V105.417C58.0988 105.362 58.2558 105.149 58.2558 102.655V95.4677C58.2558 93.4567 57.9338 93.0548 56.4058 93.0548V92.4657L60.3748 92.1708Z" fill="#1A1818"/>
<path d="M80.1889 105.955C79.2746 106.1 78.3522 106.19 77.4269 106.223C76.6269 106.223 76.4089 105.794 76.3009 103.997C75.9147 104.437 75.473 104.824 74.9869 105.15C73.9993 105.937 72.7632 106.346 71.5009 106.304C70.5186 106.367 69.5469 106.071 68.7659 105.472C68.3844 105.105 68.0827 104.663 67.8796 104.174C67.6766 103.685 67.5766 103.159 67.5859 102.63C67.5859 100.511 68.9269 99.1429 71.5279 98.5539C73.0986 98.2092 74.695 97.9941 76.3009 97.9109V96.2209C76.3657 95.3895 76.237 94.5543 75.9249 93.7809C75.6992 93.4119 75.3711 93.1165 74.9805 92.9308C74.5898 92.7451 74.1536 92.677 73.7249 92.7349C71.9559 92.7349 71.0439 93.5349 70.9359 95.2009C70.9089 95.7639 70.8559 95.9519 70.6419 96.1129C70.3557 96.2712 70.0305 96.3454 69.7039 96.3269C68.7919 96.3269 68.3899 96.0859 68.3899 95.5269C68.4442 94.9763 68.6409 94.4492 68.9607 93.9977C69.2806 93.5462 69.7125 93.1858 70.2139 92.9519C71.4256 92.341 72.7718 92.0459 74.1279 92.0939C75.8439 92.0939 77.0789 92.4939 77.7219 93.2739C78.3295 94.161 78.6047 95.2339 78.4989 96.3039C78.4989 96.3839 78.4989 96.3839 78.4459 99.0119L78.4189 101.56L78.3919 102.793C78.3407 103.573 78.4406 104.356 78.6859 105.099C78.8469 105.314 79.1679 105.399 80.1859 105.399L80.1889 105.955ZM76.3009 98.5279C74.7516 98.5467 73.2217 98.8748 71.8009 99.4929C71.2292 99.7635 70.7519 100.2 70.4309 100.745C70.11 101.29 69.9602 101.919 70.0009 102.55C70.0009 104.239 70.9129 105.393 72.2529 105.393C72.9433 105.381 73.6196 105.195 74.2195 104.853C74.8194 104.511 75.3237 104.024 75.6859 103.436C76.1913 102.29 76.4034 101.037 76.3029 99.7889L76.3009 98.5279Z" fill="#1A1818"/>
<path d="M44.8248 117.637C45.2262 116.738 45.8939 115.983 46.7377 115.475C47.5816 114.966 48.561 114.729 49.5438 114.795C50.2257 114.721 50.9147 114.837 51.5347 115.131C52.1547 115.424 52.6815 115.883 53.0568 116.457C53.6232 117.479 53.8673 118.647 53.7568 119.81V125.361C53.7568 127.881 53.8918 128.068 55.7138 128.123V128.712H49.6248V128.123C50.5098 128.096 50.9928 127.988 51.2068 127.723C51.3907 127.465 51.4849 127.155 51.4748 126.838C51.5018 126.538 51.5558 125.551 51.5558 125.363V119.973C51.6177 118.987 51.4718 117.999 51.1278 117.073C50.9289 116.622 50.5954 116.243 50.1729 115.989C49.7504 115.734 49.2597 115.617 48.7678 115.652C48.1471 115.649 47.5373 115.816 47.0036 116.133C46.4699 116.45 46.0324 116.906 45.7378 117.452C45.1505 118.441 44.8355 119.567 44.8248 120.717V125.356C44.8248 127.876 44.9588 128.063 46.7818 128.118V128.707H40.6648V128.118C42.4648 128.063 42.6218 127.85 42.6218 125.356V118.169C42.6218 116.158 42.3008 115.756 40.7718 115.756V115.167L44.8208 114.867L44.8248 117.637Z" fill="#1A1818"/>
<path d="M70.1339 109.057C70.0269 110.773 69.9729 112.329 69.9729 114.394V124.771C70.0269 127.292 70.0269 127.319 70.1609 127.64C70.3219 127.989 70.6429 128.123 71.4209 128.123H71.7208V128.713L67.9669 128.927L67.8598 126.594C67.3933 127.38 66.7241 128.026 65.9223 128.465C65.1204 128.904 64.2154 129.119 63.3019 129.088C62.5502 129.083 61.8086 128.915 61.1281 128.595C60.4476 128.276 59.8444 127.813 59.3598 127.238C58.2961 125.799 57.7566 124.039 57.8309 122.251C57.8309 117.827 60.2979 114.797 63.8909 114.797C64.6345 114.772 65.3736 114.922 66.0488 115.235C66.724 115.548 67.3166 116.014 67.7789 116.597V112.549C67.7789 109.949 67.7519 109.894 65.7949 109.868V109.278L70.1339 109.057ZM64.0469 115.466C61.6339 115.466 60.3199 117.745 60.3199 121.955C60.3199 126.112 61.5269 128.31 63.8049 128.31C66.3529 128.31 67.8539 125.95 67.8539 121.928C67.8539 117.771 66.4879 115.466 64.0469 115.466Z" fill="#1A1818"/>
<path d="M78.719 127.158C78.7215 127.533 78.6125 127.9 78.4056 128.213C78.1988 128.526 77.9035 128.771 77.5574 128.915C77.2113 129.06 76.83 129.099 76.4619 129.026C76.0938 128.953 75.7557 128.773 75.4905 128.508C75.2253 128.242 75.045 127.904 74.9726 127.536C74.9002 127.168 74.9388 126.786 75.0837 126.44C75.2286 126.094 75.4732 125.799 75.7862 125.593C76.0993 125.386 76.4668 125.277 76.842 125.28C77.0902 125.274 77.3371 125.318 77.5676 125.411C77.7981 125.503 78.0075 125.641 78.183 125.817C78.3585 125.992 78.4965 126.202 78.5887 126.432C78.6808 126.663 78.7251 126.91 78.719 127.158Z" fill="#1A1818"/>
<path d="M86.2248 36.0032V36.6852C86.4326 37.0986 86.7415 37.4529 87.1228 37.7152C87.504 37.9774 87.9454 38.1391 88.4058 38.1852C90.1788 38.1852 91.6798 36.4132 93.5888 36.1392C97.8168 33.2752 101.635 26.5932 107.089 26.5932C109.816 26.5932 112.953 28.0932 112.953 31.0932C112.953 34.0932 108.043 38.1842 106.543 41.3212C103.269 48.5492 98.4968 54.1412 98.4968 62.5972C98.4968 67.9152 100.269 72.6882 106.407 72.6882C110.498 72.6882 114.181 70.3692 118.272 70.3692C119.572 70.3545 120.852 70.6883 121.979 71.336C123.107 71.9837 124.04 72.9216 124.682 74.0522V74.4612C124.698 75.6789 124.303 76.8664 123.56 77.8316C122.817 78.7969 121.771 79.4834 120.59 79.7802C115.3 80.9152 109.908 81.5089 104.498 81.5522C92.7688 81.5522 86.3588 75.6882 86.3588 63.6862C86.4949 58.7611 87.1812 53.8667 88.4048 49.0942C87.5936 48.7185 86.7077 48.5318 85.8138 48.5482C84.9187 48.518 84.0297 48.7053 83.2228 49.0942C79.8138 51.1402 77.4958 58.2322 74.9048 61.6402C69.5868 68.3222 62.0848 78.8232 52.6748 78.8232C52.1723 78.875 51.6645 78.8166 51.1868 78.6519C50.7091 78.4873 50.2732 78.2205 49.9093 77.87C49.5454 77.5195 49.2623 77.0938 49.0798 76.6227C48.8974 76.1516 48.8199 75.6463 48.8528 75.1422C48.8616 74.7202 48.9641 74.3055 49.1528 73.9279C49.3414 73.5504 49.6117 73.2195 49.9438 72.9592C51.5798 71.4592 53.4888 70.2322 55.1268 68.5952C62.1281 62.4494 67.7912 54.9302 71.7648 46.5042C70.6567 42.966 70.015 39.2984 69.8558 35.5942C69.7084 32.0077 70.9267 28.4987 73.2648 25.7752C75.5838 23.3212 79.5388 20.5932 82.9478 20.5932C83.624 20.5667 84.2984 20.6783 84.9299 20.921C85.5615 21.1638 86.1371 21.5326 86.6215 22.005C87.1059 22.4774 87.489 23.0436 87.7474 23.6689C88.0059 24.2942 88.1343 24.9656 88.1248 25.6422C88.1248 29.1882 86.2158 32.4612 86.2158 36.0062" fill="#1A1818"/>
<path d="M143.903 85.917C142.812 88.098 140.494 89.19 138.175 90.144C135.584 90.144 132.175 88.781 131.629 85.917V83.189C131.629 72.006 132.72 61.096 133.811 50.049C134.084 47.186 134.493 38.594 134.902 36.549C135.448 34.503 138.448 33.822 140.084 32.866C140.576 32.7593 141.08 32.7136 141.584 32.73C144.039 32.73 146.629 33.821 146.629 36.549C146.629 53.049 143.766 69.416 143.902 85.917M155.63 18.274C152.357 21.819 149.902 23.047 144.857 23.047C143.117 23.0075 141.384 22.8249 139.674 22.501C137.356 20.865 132.583 18.273 132.583 15.001C132.583 8.04498 139.674 0.000976562 146.766 0.000976562C154.266 0.000976562 157.949 5.72898 157.949 12.82C157.949 15.411 157.267 16.501 155.63 18.274Z" fill="#1A1818"/>
<path d="M187.544 90.1449C186.998 84.1449 181.68 85.7809 177.316 85.7809C174.316 85.7809 171.316 85.3719 168.997 83.4629C162.315 78.5529 159.86 65.8709 159.86 58.0969C159.838 56.1736 160.021 54.2535 160.406 52.3689C161.769 45.1419 168.316 39.2769 175.68 39.2769C180.998 39.2769 184.408 40.9139 189.454 42.2769C189.957 39.6713 190.186 37.0202 190.136 34.3669C190.136 29.8669 191.636 23.8669 185.772 23.8669C177.862 23.8669 173.907 31.7769 169.543 31.7769C167.361 31.7769 165.179 27.6859 165.179 25.5029C165.179 18.1389 180.179 12.2749 186.317 12.2749C191.772 12.2749 197.636 15.0019 199.409 20.4579C201.591 26.8669 202 36.2769 202 42.9579C202 57.2779 199.272 71.3249 199 85.6439C198.863 87.6899 196.818 92.1899 194.5 92.5989C193.825 92.7171 193.139 92.7631 192.454 92.7359C190.544 92.7359 187.817 92.4629 187.544 90.1449ZM171.725 60.1449C171.725 63.0089 172.27 68.7369 173.498 71.3279C174.18 72.9639 176.907 73.3739 178.407 73.6469C180.524 74.0531 182.665 74.3263 184.817 74.4649C190.135 74.4649 189.181 58.0999 189.726 54.2809C187.954 54.2809 181.816 51.1439 177.317 51.1439C172.134 51.1439 171.725 56.0549 171.725 60.1449Z" fill="#1A1818"/>
<path d="M41.0869 18.9681C40.2199 26.8311 15.4259 21.4881 12.7629 45.6181C12.2099 50.6331 12.9699 59.9101 16.7979 63.7631C22.9929 69.7971 38.4269 66.6971 37.5889 74.2891C36.9159 80.3891 27.4889 80.0341 23.1509 79.5561C15.4239 78.7041 6.1139 73.5561 2.9599 66.0781C0.123903 59.4531 -0.471097 51.1551 0.321903 43.9701C1.2039 35.9701 4.5089 24.6701 11.6139 19.9701C17.4139 15.9441 26.1249 11.5551 33.4459 12.3631C35.7428 12.5718 37.9324 13.4322 39.7569 14.8431C40.2249 15.5811 40.9629 16.3431 40.8739 17.1601C41.0902 17.7363 41.1629 18.3565 41.0859 18.9671" fill="#1A1818"/>
</g>
</svg>
